STARTFONT 2.1
FONT -Fondu-Times-Medium-R-Normal--14-130-75-75-P-73-MacRoman-1
SIZE 13 75 75
FONTBOUNDINGBOX 13 15 -1 -3
COMMENT Created by Fondu from a mac NFNT/FONT resource
STARTPROPERTIES 17
FOUNDRY "Fondu"
FAMILY_NAME "Times"
WEIGHT_NAME "Medium"
SLANT "R"
SETWIDTH_NAME "Normal"
ADD_STYLE_NAME ""
PIXEL_SIZE 14
POINT_SIZE 130
RESOLUTION_X 75
RESOLUTION_Y 75
SPACING "P"
AVERAGE_WIDTH 73
CHARSET_REGISTRY "MacRoman"
CHARSET_ENCODING "1"
FONT_ASCENT 12
FONT_DESCENT 3
FACE_NAME "Times"
ENDPROPERTIES
CHARS 223
STARTCHAR space
ENCODING 32
SWIDTH 250 0
DWIDTH 4 0
BBX 0 0 0 -3
BITMAP
ENDCHAR
STARTCHAR exclam
ENCODING 33
SWIDTH 333 0
DWIDTH 5 0
BBX 1 10 2 0
BITMAP
80
80
80
80
80
80
80
80
00
80
ENDCHAR
STARTCHAR quotedbl
ENCODING 34
SWIDTH 408 0
DWIDTH 6 0
BBX 3 3 1 7
BITMAP
A0
A0
A0
ENDCHAR
STARTCHAR numbersign
ENCODING 35
SWIDTH 500 0
DWIDTH 7 0
BBX 7 9 0 1
BITMAP
14
14
7E
28
28
28
FC
50
50
ENDCHAR
STARTCHAR dollar
ENCODING 36
SWIDTH 500 0
DWIDTH 7 0
BBX 5 12 1 -1
BITMAP
20
70
A8
A0
E0
70
38
28
28
A8
70
20
ENDCHAR
STARTCHAR percent
ENCODING 37
SWIDTH 833 0
DWIDTH 12 0
BBX 10 10 1 0
BITMAP
3780
4880
8900
9200
6400
0980
1240
2440
4480
4300
ENDCHAR
STARTCHAR ampersand
ENCODING 38
SWIDTH 778 0
DWIDTH 11 0
BBX 10 10 0 0
BITMAP
3000
4800
4800
3000
2380
5100
8A00
8400
CA40
7180
ENDCHAR
STARTCHAR quotesingle
ENCODING 39
SWIDTH 180 0
DWIDTH 4 0
BBX 1 3 1 7
BITMAP
80
80
80
ENDCHAR
STARTCHAR parenleft
ENCODING 40
SWIDTH 333 0
DWIDTH 5 0
BBX 3 13 1 -3
BITMAP
20
40
40
80
80
80
80
80
80
80
40
40
20
ENDCHAR
STARTCHAR parenright
ENCODING 41
SWIDTH 333 0
DWIDTH 5 0
BBX 3 13 1 -3
BITMAP
80
40
40
20
20
20
20
20
20
20
40
40
80
ENDCHAR
STARTCHAR asterisk
ENCODING 42
SWIDTH 500 0
DWIDTH 7 0
BBX 5 5 1 5
BITMAP
20
A8
70
A8
20
ENDCHAR
STARTCHAR plus
ENCODING 43
SWIDTH 564 0
DWIDTH 8 0
BBX 7 7 0 0
BITMAP
10
10
10
FE
10
10
10
ENDCHAR
STARTCHAR comma
ENCODING 44
SWIDTH 250 0
DWIDTH 4 0
BBX 2 4 0 -3
BITMAP
40
40
40
80
ENDCHAR
STARTCHAR hyphen
ENCODING 45
SWIDTH 333 0
DWIDTH 5 0
BBX 4 1 0 3
BITMAP
F0
ENDCHAR
STARTCHAR period
ENCODING 46
SWIDTH 250 0
DWIDTH 4 0
BBX 1 1 1 0
BITMAP
80
ENDCHAR
STARTCHAR slash
ENCODING 47
SWIDTH 278 0
DWIDTH 4 0
BBX 3 10 0 0
BITMAP
20
20
20
40
40
40
40
80
80
80
ENDCHAR
STARTCHAR zero
ENCODING 48
SWIDTH 500 0
DWIDTH 7 0
BBX 5 10 1 0
BITMAP
70
88
88
88
88
88
88
88
88
70
ENDCHAR
STARTCHAR one
ENCODING 49
SWIDTH 500 0
DWIDTH 7 0
BBX 3 10 2 0
BITMAP
40
C0
40
40
40
40
40
40
40
E0
ENDCHAR
STARTCHAR two
ENCODING 50
SWIDTH 500 0
DWIDTH 7 0
BBX 6 10 0 0
BITMAP
38
44
84
04
08
10
20
40
84
F8
ENDCHAR
STARTCHAR three
ENCODING 51
SWIDTH 500 0
DWIDTH 7 0
BBX 5 10 1 0
BITMAP
70
88
08
10
60
10
08
08
90
60
ENDCHAR
STARTCHAR four
ENCODING 52
SWIDTH 500 0
DWIDTH 7 0
BBX 6 10 0 0
BITMAP
08
18
28
48
88
FC
08
08
08
08
ENDCHAR
STARTCHAR five
ENCODING 53
SWIDTH 500 0
DWIDTH 7 0
BBX 5 10 1 0
BITMAP
F8
80
80
E0
10
08
08
08
90
60
ENDCHAR
STARTCHAR six
ENCODING 54
SWIDTH 500 0
DWIDTH 7 0
BBX 6 10 0 0
BITMAP
18
60
40
B0
C8
84
84
84
48
30
ENDCHAR
STARTCHAR seven
ENCODING 55
SWIDTH 500 0
DWIDTH 7 0
BBX 6 10 0 0
BITMAP
7C
84
08
08
10
10
20
20
40
40
ENDCHAR
STARTCHAR eight
ENCODING 56
SWIDTH 500 0
DWIDTH 7 0
BBX 5 10 1 0
BITMAP
70
88
88
50
20
50
88
88
88
70
ENDCHAR
STARTCHAR nine
ENCODING 57
SWIDTH 500 0
DWIDTH 7 0
BBX 6 10 0 0
BITMAP
30
48
84
84
84
4C
34
08
18
60
ENDCHAR
STARTCHAR colon
ENCODING 58
SWIDTH 278 0
DWIDTH 4 0
BBX 1 7 1 0
BITMAP
80
00
00
00
00
00
80
ENDCHAR
STARTCHAR semicolon
ENCODING 59
SWIDTH 278 0
DWIDTH 4 0
BBX 2 10 1 -3
BITMAP
40
00
00
00
00
00
40
40
40
80
ENDCHAR
STARTCHAR less
ENCODING 60
SWIDTH 564 0
DWIDTH 8 0
BBX 6 5 1 1
BITMAP
0C
30
C0
30
0C
ENDCHAR
STARTCHAR equal
ENCODING 61
SWIDTH 564 0
DWIDTH 8 0
BBX 6 3 1 2
BITMAP
FC
00
FC
ENDCHAR
STARTCHAR greater
ENCODING 62
SWIDTH 564 0
DWIDTH 8 0
BBX 6 5 1 1
BITMAP
C0
30
0C
30
C0
ENDCHAR
STARTCHAR question
ENCODING 63
SWIDTH 444 0
DWIDTH 6 0
BBX 5 10 0 0
BITMAP
70
98
C8
08
08
10
20
20
00
20
ENDCHAR
STARTCHAR at
ENCODING 64
SWIDTH 921 0
DWIDTH 13 0
BBX 11 11 1 -1
BITMAP
1F00
60C0
4040
8620
8920
9120
9320
8CC0
4000
6000
1F00
ENDCHAR
STARTCHAR A
ENCODING 65
SWIDTH 722 0
DWIDTH 10 0
BBX 9 10 0 0
BITMAP
0800
0800
1400
1400
2200
2200
3E00
4100
4100
E380
ENDCHAR
STARTCHAR B
ENCODING 66
SWIDTH 667 0
DWIDTH 9 0
BBX 8 10 0 0
BITMAP
FC
42
41
42
7C
42
41
41
42
FC
ENDCHAR
STARTCHAR C
ENCODING 67
SWIDTH 667 0
DWIDTH 9 0
BBX 7 10 0 0
BITMAP
1A
66
42
80
80
80
80
40
62
1C
ENDCHAR
STARTCHAR D
ENCODING 68
SWIDTH 722 0
DWIDTH 10 0
BBX 9 10 0 0
BITMAP
FC00
4300
4100
4080
4080
4080
4080
4100
4300
FC00
ENDCHAR
STARTCHAR E
ENCODING 69
SWIDTH 611 0
DWIDTH 9 0
BBX 7 10 1 0
BITMAP
FE
42
40
48
78
48
40
40
42
FE
ENDCHAR
STARTCHAR F
ENCODING 70
SWIDTH 556 0
DWIDTH 8 0
BBX 7 10 0 0
BITMAP
FE
42
40
44
7C
44
40
40
40
E0
ENDCHAR
STARTCHAR G
ENCODING 71
SWIDTH 722 0
DWIDTH 10 0
BBX 8 10 1 0
BITMAP
1D
63
41
80
80
87
81
41
62
1C
ENDCHAR
STARTCHAR H
ENCODING 72
SWIDTH 722 0
DWIDTH 9 0
BBX 8 10 0 0
BITMAP
E7
42
42
42
7E
42
42
42
42
E7
ENDCHAR
STARTCHAR I
ENCODING 73
SWIDTH 333 0
DWIDTH 5 0
BBX 3 10 1 0
BITMAP
E0
40
40
40
40
40
40
40
40
E0
ENDCHAR
STARTCHAR J
ENCODING 74
SWIDTH 389 0
DWIDTH 5 0
BBX 5 10 0 0
BITMAP
38
10
10
10
10
10
10
10
90
60
ENDCHAR
STARTCHAR K
ENCODING 75
SWIDTH 722 0
DWIDTH 10 0
BBX 8 10 1 0
BITMAP
E7
44
48
50
60
50
48
44
42
E7
ENDCHAR
STARTCHAR L
ENCODING 76
SWIDTH 611 0
DWIDTH 9 0
BBX 7 10 1 0
BITMAP
E0
40
40
40
40
40
40
40
42
FE
ENDCHAR
STARTCHAR M
ENCODING 77
SWIDTH 889 0
DWIDTH 12 0
BBX 11 10 0 0
BITMAP
C060
4040
60C0
60C0
5140
5140
4A40
4A40
4440
E4E0
ENDCHAR
STARTCHAR N
ENCODING 78
SWIDTH 722 0
DWIDTH 10 0
BBX 9 10 0 0
BITMAP
C380
6100
6100
5100
4900
4900
4500
4300
4300
E100
ENDCHAR
STARTCHAR O
ENCODING 79
SWIDTH 722 0
DWIDTH 10 0
BBX 9 10 0 0
BITMAP
1C00
6300
4100
8080
8080
8080
8080
4100
6300
1C00
ENDCHAR
STARTCHAR P
ENCODING 80
SWIDTH 556 0
DWIDTH 8 0
BBX 7 10 0 0
BITMAP
F8
44
42
42
44
78
40
40
40
F0
ENDCHAR
STARTCHAR Q
ENCODING 81
SWIDTH 722 0
DWIDTH 10 0
BBX 9 12 0 -2
BITMAP
1C00
6300
4100
8080
8080
8080
8080
4100
6300
1C00
0400
0200
ENDCHAR
STARTCHAR R
ENCODING 82
SWIDTH 667 0
DWIDTH 9 0
BBX 8 10 0 0
BITMAP
F8
44
42
42
44
78
48
44
42
E1
ENDCHAR
STARTCHAR S
ENCODING 83
SWIDTH 556 0
DWIDTH 7 0
BBX 6 10 0 0
BITMAP
74
8C
84
C0
70
18
04
84
C4
B8
ENDCHAR
STARTCHAR T
ENCODING 84
SWIDTH 611 0
DWIDTH 9 0
BBX 7 10 1 0
BITMAP
FE
92
10
10
10
10
10
10
10
38
ENDCHAR
STARTCHAR U
ENCODING 85
SWIDTH 722 0
DWIDTH 10 0
BBX 9 10 0 0
BITMAP
E380
4100
4100
4100
4100
4100
4100
4100
2200
1C00
ENDCHAR
STARTCHAR V
ENCODING 86
SWIDTH 722 0
DWIDTH 10 0
BBX 9 10 0 0
BITMAP
E380
4100
4100
2200
2200
1400
1400
0800
0800
0800
ENDCHAR
STARTCHAR W
ENCODING 87
SWIDTH 944 0
DWIDTH 13 0
BBX 13 10 0 0
BITMAP
EE38
4410
4410
2220
2220
1540
1540
0880
0880
0880
ENDCHAR
STARTCHAR X
ENCODING 88
SWIDTH 722 0
DWIDTH 10 0
BBX 9 10 0 0
BITMAP
E380
4100
2200
1400
0800
0800
1400
2200
4100
E380
ENDCHAR
STARTCHAR Y
ENCODING 89
SWIDTH 722 0
DWIDTH 10 0
BBX 9 10 0 0
BITMAP
E380
4100
2200
2200
1400
1400
0800
0800
0800
1C00
ENDCHAR
STARTCHAR Z
ENCODING 90
SWIDTH 611 0
DWIDTH 9 0
BBX 8 10 0 0
BITMAP
FF
82
04
0C
08
10
30
20
41
FF
ENDCHAR
STARTCHAR bracketleft
ENCODING 91
SWIDTH 333 0
DWIDTH 4 0
BBX 3 13 0 -3
BITMAP
E0
80
80
80
80
80
80
80
80
80
80
80
E0
ENDCHAR
STARTCHAR backslash
ENCODING 92
SWIDTH 278 0
DWIDTH 4 0
BBX 3 10 0 0
BITMAP
80
80
80
40
40
40
40
20
20
20
ENDCHAR
STARTCHAR bracketright
ENCODING 93
SWIDTH 333 0
DWIDTH 4 0
BBX 3 13 0 -3
BITMAP
E0
20
20
20
20
20
20
20
20
20
20
20
E0
ENDCHAR
STARTCHAR asciicircum
ENCODING 94
SWIDTH 469 0
DWIDTH 6 0
BBX 5 3 0 7
BITMAP
20
50
88
ENDCHAR
STARTCHAR underscore
ENCODING 95
SWIDTH 500 0
DWIDTH 7 0
BBX 7 1 0 -3
BITMAP
FE
ENDCHAR
STARTCHAR grave
ENCODING 96
SWIDTH 333 0
DWIDTH 4 0
BBX 3 3 0 7
BITMAP
80
40
20
ENDCHAR
STARTCHAR a
ENCODING 97
SWIDTH 444 0
DWIDTH 6 0
BBX 6 7 0 0
BITMAP
70
88
38
48
88
98
6C
ENDCHAR
STARTCHAR b
ENCODING 98
SWIDTH 500 0
DWIDTH 7 0
BBX 6 10 0 0
BITMAP
40
C0
40
78
44
44
44
44
44
38
ENDCHAR
STARTCHAR c
ENCODING 99
SWIDTH 444 0
DWIDTH 6 0
BBX 5 7 0 0
BITMAP
70
98
80
80
80
88
70
ENDCHAR
STARTCHAR d
ENCODING 100
SWIDTH 500 0
DWIDTH 7 0
BBX 6 10 0 0
BITMAP
08
18
08
78
88
88
88
88
88
74
ENDCHAR
STARTCHAR e
ENCODING 101
SWIDTH 444 0
DWIDTH 6 0
BBX 5 7 0 0
BITMAP
70
88
88
F8
80
88
70
ENDCHAR
STARTCHAR f
ENCODING 102
SWIDTH 333 0
DWIDTH 5 0
BBX 5 10 0 0
BITMAP
30
48
40
F0
40
40
40
40
40
E0
ENDCHAR
STARTCHAR g
ENCODING 103
SWIDTH 500 0
DWIDTH 7 0
BBX 7 10 0 -3
BITMAP
3A
44
44
44
38
40
78
84
84
78
ENDCHAR
STARTCHAR h
ENCODING 104
SWIDTH 500 0
DWIDTH 7 0
BBX 7 10 0 0
BITMAP
40
C0
40
58
64
44
44
44
44
EE
ENDCHAR
STARTCHAR i
ENCODING 105
SWIDTH 278 0
DWIDTH 4 0
BBX 3 10 0 0
BITMAP
40
00
00
40
C0
40
40
40
40
E0
ENDCHAR
STARTCHAR j
ENCODING 106
SWIDTH 278 0
DWIDTH 4 0
BBX 3 13 0 -3
BITMAP
20
00
00
20
60
20
20
20
20
20
20
20
C0
ENDCHAR
STARTCHAR k
ENCODING 107
SWIDTH 500 0
DWIDTH 7 0
BBX 6 10 0 0
BITMAP
40
C0
40
5C
48
50
60
50
48
EC
ENDCHAR
STARTCHAR l
ENCODING 108
SWIDTH 278 0
DWIDTH 4 0
BBX 3 10 0 0
BITMAP
40
C0
40
40
40
40
40
40
40
E0
ENDCHAR
STARTCHAR m
ENCODING 109
SWIDTH 778 0
DWIDTH 11 0
BBX 11 7 0 0
BITMAP
D980
6640
4440
4440
4440
4440
EEE0
ENDCHAR
STARTCHAR n
ENCODING 110
SWIDTH 500 0
DWIDTH 7 0
BBX 7 7 0 0
BITMAP
D8
64
44
44
44
44
EE
ENDCHAR
STARTCHAR o
ENCODING 111
SWIDTH 500 0
DWIDTH 7 0
BBX 6 7 0 0
BITMAP
30
48
84
84
84
48
30
ENDCHAR
STARTCHAR p
ENCODING 112
SWIDTH 500 0
DWIDTH 7 0
BBX 6 10 0 -3
BITMAP
78
C4
44
44
44
44
78
40
40
E0
ENDCHAR
STARTCHAR q
ENCODING 113
SWIDTH 500 0
DWIDTH 7 0
BBX 6 10 0 -3
BITMAP
78
88
88
88
88
88
78
08
08
1C
ENDCHAR
STARTCHAR r
ENCODING 114
SWIDTH 333 0
DWIDTH 6 0
BBX 5 7 0 0
BITMAP
D8
68
40
40
40
40
E0
ENDCHAR
STARTCHAR s
ENCODING 115
SWIDTH 389 0
DWIDTH 5 0
BBX 4 7 0 0
BITMAP
70
90
80
60
10
90
E0
ENDCHAR
STARTCHAR t
ENCODING 116
SWIDTH 278 0
DWIDTH 4 0
BBX 4 9 0 0
BITMAP
40
40
E0
40
40
40
40
50
20
ENDCHAR
STARTCHAR u
ENCODING 117
SWIDTH 500 0
DWIDTH 7 0
BBX 7 7 0 0
BITMAP
CC
44
44
44
44
4C
36
ENDCHAR
STARTCHAR v
ENCODING 118
SWIDTH 500 0
DWIDTH 7 0
BBX 7 7 0 0
BITMAP
EE
44
44
28
28
10
10
ENDCHAR
STARTCHAR w
ENCODING 119
SWIDTH 722 0
DWIDTH 10 0
BBX 9 7 0 0
BITMAP
FB80
5100
5100
2A00
2A00
1400
1400
ENDCHAR
STARTCHAR x
ENCODING 120
SWIDTH 500 0
DWIDTH 7 0
BBX 7 7 0 0
BITMAP
EE
44
28
10
28
44
EE
ENDCHAR
STARTCHAR y
ENCODING 121
SWIDTH 500 0
DWIDTH 7 0
BBX 7 10 0 -3
BITMAP
EE
44
44
28
28
10
10
20
20
C0
ENDCHAR
STARTCHAR z
ENCODING 122
SWIDTH 444 0
DWIDTH 6 0
BBX 5 7 0 0
BITMAP
F8
88
10
20
40
88
F8
ENDCHAR
STARTCHAR braceleft
ENCODING 123
SWIDTH 480 0
DWIDTH 7 0
BBX 4 13 1 -3
BITMAP
30
40
40
40
40
40
80
40
40
40
40
40
30
ENDCHAR
STARTCHAR bar
ENCODING 124
SWIDTH 200 0
DWIDTH 3 0
BBX 1 13 1 -3
BITMAP
80
80
80
80
80
80
80
80
80
80
80
80
80
ENDCHAR
STARTCHAR braceright
ENCODING 125
SWIDTH 480 0
DWIDTH 7 0
BBX 4 13 2 -3
BITMAP
C0
20
20
20
20
20
10
20
20
20
20
20
C0
ENDCHAR
STARTCHAR asciitilde
ENCODING 126
SWIDTH 541 0
DWIDTH 7 0
BBX 6 2 0 4
BITMAP
64
98
ENDCHAR
STARTCHAR Adieresis
ENCODING 128
SWIDTH 722 0
DWIDTH 10 0
BBX 9 11 0 0
BITMAP
2200
0800
0800
1400
1400
2200
2200
3E00
4100
4100
E380
ENDCHAR
STARTCHAR Aring
ENCODING 129
SWIDTH 722 0
DWIDTH 10 0
BBX 9 12 0 0
BITMAP
1C00
2200
1C00
0800
1400
1400
2200
2200
3E00
4100
4100
E380
ENDCHAR
STARTCHAR Ccedilla
ENCODING 130
SWIDTH 667 0
DWIDTH 9 0
BBX 8 13 0 -3
BITMAP
1D
63
41
80
80
80
80
41
62
1C
08
08
10
ENDCHAR
STARTCHAR Eacute
ENCODING 131
SWIDTH 611 0
DWIDTH 9 0
BBX 7 12 1 0
BITMAP
08
10
FE
42
40
44
7C
44
40
40
42
FE
ENDCHAR
STARTCHAR Ntilde
ENCODING 132
SWIDTH 722 0
DWIDTH 10 0
BBX 9 12 0 0
BITMAP
1900
2600
C380
6100
6100
5100
4900
4900
4500
4300
4300
E100
ENDCHAR
STARTCHAR Odieresis
ENCODING 133
SWIDTH 722 0
DWIDTH 10 0
BBX 9 12 0 0
BITMAP
2200
0000
1C00
6300
4100
8080
8080
8080
8080
4100
6300
1C00
ENDCHAR
STARTCHAR Udieresis
ENCODING 134
SWIDTH 722 0
DWIDTH 10 0
BBX 9 12 0 0
BITMAP
2400
0000
E380
4100
4100
4100
4100
4100
4100
4100
2200
1C00
ENDCHAR
STARTCHAR aacute
ENCODING 135
SWIDTH 444 0
DWIDTH 6 0
BBX 6 10 0 0
BITMAP
10
20
00
70
88
38
48
88
98
6C
ENDCHAR
STARTCHAR agrave
ENCODING 136
SWIDTH 444 0
DWIDTH 6 0
BBX 6 10 0 0
BITMAP
40
20
00
70
88
38
48
88
98
6C
ENDCHAR
STARTCHAR acircumflex
ENCODING 137
SWIDTH 444 0
DWIDTH 6 0
BBX 6 10 0 0
BITMAP
20
50
00
70
88
38
48
88
98
6C
ENDCHAR
STARTCHAR adieresis
ENCODING 138
SWIDTH 444 0
DWIDTH 6 0
BBX 6 9 0 0
BITMAP
50
00
70
88
38
48
88
98
6C
ENDCHAR
STARTCHAR atilde
ENCODING 139
SWIDTH 444 0
DWIDTH 6 0
BBX 6 10 0 0
BITMAP
64
98
00
70
88
38
48
88
98
6C
ENDCHAR
STARTCHAR aring
ENCODING 140
SWIDTH 444 0
DWIDTH 6 0
BBX 6 12 0 0
BITMAP
20
50
50
20
00
70
88
38
48
88
98
6C
ENDCHAR
STARTCHAR ccedilla
ENCODING 141
SWIDTH 444 0
DWIDTH 6 0
BBX 5 10 0 -3
BITMAP
70
98
80
80
80
88
70
20
20
40
ENDCHAR
STARTCHAR eacute
ENCODING 142
SWIDTH 444 0
DWIDTH 6 0
BBX 5 10 0 0
BITMAP
10
20
00
70
88
88
F8
80
88
70
ENDCHAR
STARTCHAR egrave
ENCODING 143
SWIDTH 444 0
DWIDTH 6 0
BBX 5 10 0 0
BITMAP
40
20
00
70
88
88
F8
80
88
70
ENDCHAR
STARTCHAR ecircumflex
ENCODING 144
SWIDTH 444 0
DWIDTH 6 0
BBX 5 10 0 0
BITMAP
20
50
00
70
88
88
F8
80
88
70
ENDCHAR
STARTCHAR edieresis
ENCODING 145
SWIDTH 444 0
DWIDTH 6 0
BBX 5 9 0 0
BITMAP
50
00
70
88
88
F8
80
88
70
ENDCHAR
STARTCHAR iacute
ENCODING 146
SWIDTH 278 0
DWIDTH 4 0
BBX 3 10 0 0
BITMAP
20
40
00
40
C0
40
40
40
40
E0
ENDCHAR
STARTCHAR igrave
ENCODING 147
SWIDTH 278 0
DWIDTH 4 0
BBX 3 10 0 0
BITMAP
80
40
00
40
C0
40
40
40
40
E0
ENDCHAR
STARTCHAR icircumflex
ENCODING 148
SWIDTH 278 0
DWIDTH 4 0
BBX 3 10 0 0
BITMAP
40
A0
00
40
C0
40
40
40
40
E0
ENDCHAR
STARTCHAR idieresis
ENCODING 149
SWIDTH 278 0
DWIDTH 4 0
BBX 3 9 0 0
BITMAP
A0
00
40
C0
40
40
40
40
E0
ENDCHAR
STARTCHAR ntilde
ENCODING 150
SWIDTH 500 0
DWIDTH 7 0
BBX 7 10 0 0
BITMAP
64
98
00
D8
64
44
44
44
44
EE
ENDCHAR
STARTCHAR oacute
ENCODING 151
SWIDTH 500 0
DWIDTH 7 0
BBX 6 10 0 0
BITMAP
10
20
00
30
48
84
84
84
48
30
ENDCHAR
STARTCHAR ograve
ENCODING 152
SWIDTH 500 0
DWIDTH 7 0
BBX 6 10 0 0
BITMAP
40
20
00
30
48
84
84
84
48
30
ENDCHAR
STARTCHAR ocircumflex
ENCODING 153
SWIDTH 500 0
DWIDTH 7 0
BBX 6 10 0 0
BITMAP
30
48
00
30
48
84
84
84
48
30
ENDCHAR
STARTCHAR odieresis
ENCODING 154
SWIDTH 500 0
DWIDTH 7 0
BBX 6 9 0 0
BITMAP
48
00
30
48
84
84
84
48
30
ENDCHAR
STARTCHAR otilde
ENCODING 155
SWIDTH 500 0
DWIDTH 7 0
BBX 6 10 0 0
BITMAP
64
98
00
30
48
84
84
84
48
30
ENDCHAR
STARTCHAR uacute
ENCODING 156
SWIDTH 500 0
DWIDTH 7 0
BBX 7 10 0 0
BITMAP
10
20
00
CC
44
44
44
44
4C
36
ENDCHAR
STARTCHAR ugrave
ENCODING 157
SWIDTH 500 0
DWIDTH 7 0
BBX 7 10 0 0
BITMAP
20
10
00
CC
44
44
44
44
4C
36
ENDCHAR
STARTCHAR ucircumflex
ENCODING 158
SWIDTH 500 0
DWIDTH 7 0
BBX 7 10 0 0
BITMAP
10
28
00
CC
44
44
44
44
4C
36
ENDCHAR
STARTCHAR udieresis
ENCODING 159
SWIDTH 500 0
DWIDTH 7 0
BBX 7 9 0 0
BITMAP
48
00
CC
44
44
44
44
4C
36
ENDCHAR
STARTCHAR dagger
ENCODING 160
SWIDTH 500 0
DWIDTH 7 0
BBX 5 11 1 -1
BITMAP
20
20
F8
20
20
20
20
20
20
20
20
ENDCHAR
STARTCHAR degree
ENCODING 161
SWIDTH 400 0
DWIDTH 5 0
BBX 4 4 0 6
BITMAP
60
90
90
60
ENDCHAR
STARTCHAR cent
ENCODING 162
SWIDTH 500 0
DWIDTH 6 0
BBX 5 9 0 -1
BITMAP
08
70
98
90
A0
A0
C8
70
80
ENDCHAR
STARTCHAR sterling
ENCODING 163
SWIDTH 500 0
DWIDTH 7 0
BBX 6 10 0 0
BITMAP
30
48
40
40
E0
40
40
40
44
F8
ENDCHAR
STARTCHAR section
ENCODING 164
SWIDTH 500 0
DWIDTH 7 0
BBX 5 13 1 -2
BITMAP
70
98
88
60
B0
98
88
C8
68
30
88
C8
70
ENDCHAR
STARTCHAR bullet
ENCODING 165
SWIDTH 350 0
DWIDTH 5 0
BBX 4 4 0 3
BITMAP
60
F0
F0
60
ENDCHAR
STARTCHAR paragraph
ENCODING 166
SWIDTH 453 0
DWIDTH 6 0
BBX 6 12 0 -2
BITMAP
3C
68
E8
E8
E8
68
28
28
28
28
28
28
ENDCHAR
STARTCHAR germandbls
ENCODING 167
SWIDTH 500 0
DWIDTH 7 0
BBX 6 10 0 0
BITMAP
70
88
88
88
B0
88
84
84
A8
B0
ENDCHAR
STARTCHAR registered
ENCODING 168
SWIDTH 760 0
DWIDTH 11 0
BBX 10 10 0 0
BITMAP
1E00
6180
4080
9C40
9240
9C40
9240
4080
6180
1E00
ENDCHAR
STARTCHAR copyright
ENCODING 169
SWIDTH 760 0
DWIDTH 11 0
BBX 10 10 0 0
BITMAP
1E00
6180
4080
8E40
9240
9040
8E40
4080
6180
1E00
ENDCHAR
STARTCHAR trademark
ENCODING 170
SWIDTH 980 0
DWIDTH 12 0
BBX 11 5 0 5
BITMAP
FC60
A6C0
2540
2440
7EE0
ENDCHAR
STARTCHAR acute
ENCODING 171
SWIDTH 333 0
DWIDTH 5 0
BBX 3 3 1 7
BITMAP
20
40
80
ENDCHAR
STARTCHAR dieresis
ENCODING 172
SWIDTH 333 0
DWIDTH 5 0
BBX 4 1 0 9
BITMAP
90
ENDCHAR
STARTCHAR notequal
ENCODING 173
SWIDTH 549 0
DWIDTH 8 0
BBX 7 5 0 1
BITMAP
08
FE
10
FE
20
ENDCHAR
STARTCHAR AE
ENCODING 174
SWIDTH 889 0
DWIDTH 12 0
BBX 11 10 0 0
BITMAP
0FE0
0C20
0C00
1440
17C0
2440
3C00
4400
4420
EFE0
ENDCHAR
STARTCHAR Oslash
ENCODING 175
SWIDTH 722 0
DWIDTH 10 0
BBX 9 10 0 0
BITMAP
1C80
6300
4300
8480
8880
8880
9080
6100
6300
9C00
ENDCHAR
STARTCHAR infinity
ENCODING 176
SWIDTH 713 0
DWIDTH 10 0
BBX 9 5 0 2
BITMAP
6300
9480
8880
9480
6300
ENDCHAR
STARTCHAR plusminus
ENCODING 177
SWIDTH 549 0
DWIDTH 8 0
BBX 7 7 0 0
BITMAP
10
10
10
FE
10
10
FE
ENDCHAR
STARTCHAR lessequal
ENCODING 178
SWIDTH 549 0
DWIDTH 8 0
BBX 6 6 1 0
BITMAP
0C
30
C0
30
0C
FC
ENDCHAR
STARTCHAR greaterequal
ENCODING 179
SWIDTH 549 0
DWIDTH 8 0
BBX 6 6 1 0
BITMAP
C0
30
0C
30
C0
FC
ENDCHAR
STARTCHAR yen
ENCODING 180
SWIDTH 500 0
DWIDTH 7 0
BBX 7 10 0 0
BITMAP
EE
44
28
10
7C
10
7C
10
10
38
ENDCHAR
STARTCHAR mu
ENCODING 181
SWIDTH 576 0
DWIDTH 8 0
BBX 7 9 0 -2
BITMAP
88
88
88
88
88
8A
F4
80
80
ENDCHAR
STARTCHAR partialdiff
ENCODING 182
SWIDTH 494 0
DWIDTH 7 0
BBX 5 10 1 0
BITMAP
70
08
08
08
78
88
88
88
88
70
ENDCHAR
STARTCHAR summation
ENCODING 183
SWIDTH 713 0
DWIDTH 10 0
BBX 8 11 1 -1
BITMAP
FF
41
20
10
08
04
08
10
20
41
FF
ENDCHAR
STARTCHAR product
ENCODING 184
SWIDTH 823 0
DWIDTH 12 0
BBX 9 11 1 -1
BITMAP
FF80
4100
4100
4100
4100
4100
4100
4100
4100
4100
E380
ENDCHAR
STARTCHAR pi
ENCODING 185
SWIDTH 549 0
DWIDTH 8 0
BBX 8 7 0 0
BITMAP
7E
A4
24
24
24
25
22
ENDCHAR
STARTCHAR integral
ENCODING 186
SWIDTH 274 0
DWIDTH 4 0
BBX 3 13 0 -3
BITMAP
20
40
40
40
40
40
40
40
40
40
40
40
80
ENDCHAR
STARTCHAR ordfeminine
ENCODING 187
SWIDTH 276 0
DWIDTH 4 0
BBX 3 7 0 3
BITMAP
40
A0
60
A0
E0
00
E0
ENDCHAR
STARTCHAR ordmasculine
ENCODING 188
SWIDTH 310 0
DWIDTH 5 0
BBX 4 7 0 3
BITMAP
60
90
90
90
60
00
F0
ENDCHAR
STARTCHAR Omega
ENCODING 189
SWIDTH 768 0
DWIDTH 11 0
BBX 8 10 1 0
BITMAP
3C
42
81
81
81
81
42
42
24
E7
ENDCHAR
STARTCHAR ae
ENCODING 190
SWIDTH 667 0
DWIDTH 9 0
BBX 8 7 0 0
BITMAP
76
89
39
4F
88
99
66
ENDCHAR
STARTCHAR oslash
ENCODING 191
SWIDTH 500 0
DWIDTH 7 0
BBX 6 7 0 0
BITMAP
34
48
94
A4
A4
48
B0
ENDCHAR
STARTCHAR questiondown
ENCODING 192
SWIDTH 444 0
DWIDTH 6 0
BBX 5 10 0 -3
BITMAP
20
00
20
20
40
80
80
98
C8
70
ENDCHAR
STARTCHAR exclamdown
ENCODING 193
SWIDTH 333 0
DWIDTH 5 0
BBX 1 10 2 -3
BITMAP
80
00
80
80
80
80
80
80
80
80
ENDCHAR
STARTCHAR logicalnot
ENCODING 194
SWIDTH 564 0
DWIDTH 10 0
BBX 8 4 1 0
BITMAP
FF
01
01
01
ENDCHAR
STARTCHAR radical
ENCODING 195
SWIDTH 549 0
DWIDTH 8 0
BBX 7 10 0 0
BITMAP
02
02
04
04
44
C8
28
28
10
10
ENDCHAR
STARTCHAR florin
ENCODING 196
SWIDTH 500 0
DWIDTH 7 0
BBX 5 13 1 -3
BITMAP
18
20
20
20
70
20
20
20
20
20
20
20
C0
ENDCHAR
STARTCHAR approxequal
ENCODING 197
SWIDTH 549 0
DWIDTH 8 0
BBX 6 4 1 1
BITMAP
64
98
64
98
ENDCHAR
STARTCHAR Delta
ENCODING 198
SWIDTH 612 0
DWIDTH 9 0
BBX 7 10 1 0
BITMAP
10
10
10
28
28
44
44
82
82
FE
ENDCHAR
STARTCHAR guillemotleft
ENCODING 199
SWIDTH 500 0
DWIDTH 7 0
BBX 6 6 0 0
BITMAP
24
48
90
90
48
24
ENDCHAR
STARTCHAR guillemotright
ENCODING 200
SWIDTH 500 0
DWIDTH 7 0
BBX 6 6 0 0
BITMAP
90
48
24
24
48
90
ENDCHAR
STARTCHAR ellipsis
ENCODING 201
SWIDTH 1000 0
DWIDTH 14 0
BBX 11 1 1 0
BITMAP
8420
ENDCHAR
STARTCHAR nbspace
ENCODING 202
SWIDTH 250 0
DWIDTH 7 0
BBX 0 0 0 -3
BITMAP
ENDCHAR
STARTCHAR Agrave
ENCODING 203
SWIDTH 722 0
DWIDTH 10 0
BBX 9 12 0 0
BITMAP
1000
0800
0C00
0800
1400
1400
2200
2200
3E00
4100
4100
E380
ENDCHAR
STARTCHAR Atilde
ENCODING 204
SWIDTH 722 0
DWIDTH 10 0
BBX 9 12 0 0
BITMAP
1900
2600
0800
0800
1400
1400
2200
2200
3E00
4100
4100
E380
ENDCHAR
STARTCHAR Otilde
ENCODING 205
SWIDTH 722 0
DWIDTH 10 0
BBX 9 12 0 0
BITMAP
3200
4C00
1C00
6300
4100
8080
8080
8080
8080
4100
6300
1C00
ENDCHAR
STARTCHAR OE
ENCODING 206
SWIDTH 889 0
DWIDTH 11 0
BBX 10 10 0 0
BITMAP
1BC0
6640
4200
8280
8380
8280
8200
4200
6640
1BC0
ENDCHAR
STARTCHAR oe
ENCODING 207
SWIDTH 722 0
DWIDTH 10 0
BBX 9 7 0 0
BITMAP
3600
4900
8880
8F80
8800
4880
3700
ENDCHAR
STARTCHAR endash
ENCODING 208
SWIDTH 500 0
DWIDTH 7 0
BBX 6 1 0 3
BITMAP
FC
ENDCHAR
STARTCHAR emdash
ENCODING 209
SWIDTH 1000 0
DWIDTH 14 0
BBX 13 1 0 3
BITMAP
FFF8
ENDCHAR
STARTCHAR quotedblleft
ENCODING 210
SWIDTH 444 0
DWIDTH 6 0
BBX 5 4 0 6
BITMAP
48
90
D8
48
ENDCHAR
STARTCHAR quotedblright
ENCODING 211
SWIDTH 444 0
DWIDTH 6 0
BBX 5 4 0 6
BITMAP
90
D8
48
90
ENDCHAR
STARTCHAR quoteleft
ENCODING 212
SWIDTH 333 0
DWIDTH 4 0
BBX 2 4 1 6
BITMAP
40
80
C0
40
ENDCHAR
STARTCHAR quoteright
ENCODING 213
SWIDTH 333 0
DWIDTH 4 0
BBX 2 4 1 6
BITMAP
80
C0
40
80
ENDCHAR
STARTCHAR divide
ENCODING 214
SWIDTH 549 0
DWIDTH 8 0
BBX 7 5 0 1
BITMAP
10
00
FE
00
10
ENDCHAR
STARTCHAR lozenge
ENCODING 215
SWIDTH 494 0
DWIDTH 7 0
BBX 5 10 1 0
BITMAP
20
20
50
50
88
88
50
50
20
20
ENDCHAR
STARTCHAR ydieresis
ENCODING 216
SWIDTH 500 0
DWIDTH 7 0
BBX 7 12 0 -3
BITMAP
28
00
EE
44
44
28
28
10
10
20
20
C0
ENDCHAR
STARTCHAR Ydieresis
ENCODING 217
SWIDTH 722 0
DWIDTH 10 0
BBX 9 12 0 0
BITMAP
1400
0000
E380
4100
2200
2200
1400
1400
0800
0800
0800
1C00
ENDCHAR
STARTCHAR fraction
ENCODING 218
SWIDTH 167 0
DWIDTH 3 0
BBX 2 10 0 0
BITMAP
40
40
40
40
40
80
80
80
80
80
ENDCHAR
STARTCHAR currency
ENCODING 219
SWIDTH 500 0
DWIDTH 7 0
BBX 6 6 0 2
BITMAP
B4
48
84
84
48
B4
ENDCHAR
STARTCHAR guilsinglleft
ENCODING 220
SWIDTH 333 0
DWIDTH 5 0
BBX 3 5 1 1
BITMAP
20
40
80
40
20
ENDCHAR
STARTCHAR guilsinglright
ENCODING 221
SWIDTH 333 0
DWIDTH 5 0
BBX 3 5 1 1
BITMAP
80
40
20
40
80
ENDCHAR
STARTCHAR fi
ENCODING 222
SWIDTH 556 0
DWIDTH 8 0
BBX 7 10 0 0
BITMAP
30
48
40
FC
44
44
44
44
44
EE
ENDCHAR
STARTCHAR fl
ENCODING 223
SWIDTH 556 0
DWIDTH 8 0
BBX 7 10 0 0
BITMAP
3C
44
44
FC
44
44
44
44
44
EE
ENDCHAR
STARTCHAR daggerdbl
ENCODING 224
SWIDTH 500 0
DWIDTH 6 0
BBX 5 11 0 -1
BITMAP
20
20
F8
20
20
20
20
20
F8
20
20
ENDCHAR
STARTCHAR periodcentered
ENCODING 225
SWIDTH 250 0
DWIDTH 5 0
BBX 1 1 2 4
BITMAP
80
ENDCHAR
STARTCHAR quotesinglbase
ENCODING 226
SWIDTH 333 0
DWIDTH 4 0
BBX 2 4 1 -3
BITMAP
40
40
40
80
ENDCHAR
STARTCHAR quotedblbase
ENCODING 227
SWIDTH 444 0
DWIDTH 6 0
BBX 5 4 0 -3
BITMAP
48
48
48
90
ENDCHAR
STARTCHAR perthousand
ENCODING 228
SWIDTH 1000 0
DWIDTH 14 0
BBX 13 10 0 0
BITMAP
3780
4880
8900
9200
6400
0B30
14C8
2888
4990
4660
ENDCHAR
STARTCHAR Acircumflex
ENCODING 229
SWIDTH 722 0
DWIDTH 10 0
BBX 9 12 0 0
BITMAP
0800
1400
0000
0800
0800
1400
1400
2200
3E00
4100
4100
E380
ENDCHAR
STARTCHAR Ecircumflex
ENCODING 230
SWIDTH 611 0
DWIDTH 9 0
BBX 7 12 0 0
BITMAP
10
28
FE
42
40
48
78
48
40
40
42
FE
ENDCHAR
STARTCHAR Aacute
ENCODING 231
SWIDTH 722 0
DWIDTH 10 0
BBX 9 12 0 0
BITMAP
0200
0400
0800
0800
1400
1400
2200
2200
3E00
4100
4100
E380
ENDCHAR
STARTCHAR Edieresis
ENCODING 232
SWIDTH 611 0
DWIDTH 9 0
BBX 7 12 1 0
BITMAP
28
00
FE
42
40
48
78
48
40
40
42
FE
ENDCHAR
STARTCHAR Egrave
ENCODING 233
SWIDTH 611 0
DWIDTH 9 0
BBX 7 12 1 0
BITMAP
20
10
FE
42
40
48
78
48
40
40
42
FE
ENDCHAR
STARTCHAR Iacute
ENCODING 234
SWIDTH 333 0
DWIDTH 5 0
BBX 3 12 1 0
BITMAP
20
40
E0
40
40
40
40
40
40
40
40
E0
ENDCHAR
STARTCHAR Icircumflex
ENCODING 235
SWIDTH 333 0
DWIDTH 5 0
BBX 3 12 1 0
BITMAP
40
A0
E0
40
40
40
40
40
40
40
40
E0
ENDCHAR
STARTCHAR Idieresis
ENCODING 236
SWIDTH 333 0
DWIDTH 5 0
BBX 3 12 1 0
BITMAP
A0
00
E0
40
40
40
40
40
40
40
40
E0
ENDCHAR
STARTCHAR Igrave
ENCODING 237
SWIDTH 333 0
DWIDTH 5 0
BBX 3 12 1 0
BITMAP
80
40
E0
40
40
40
40
40
40
40
40
E0
ENDCHAR
STARTCHAR Oacute
ENCODING 238
SWIDTH 722 0
DWIDTH 10 0
BBX 9 12 0 0
BITMAP
0400
0800
1C00
6300
4100
8080
8080
8080
8080
4100
6300
1C00
ENDCHAR
STARTCHAR Ocircumflex
ENCODING 239
SWIDTH 722 0
DWIDTH 10 0
BBX 9 12 0 0
BITMAP
0800
1400
1C00
6300
4100
8080
8080
8080
8080
4100
6300
1C00
ENDCHAR
STARTCHAR apple
ENCODING 240
SWIDTH 790 0
DWIDTH 11 0
BBX 9 12 1 0
BITMAP
0600
0C00
0800
7700
FF80
FE00
FE00
FF80
FF80
7F80
7F00
3600
ENDCHAR
STARTCHAR Ograve
ENCODING 241
SWIDTH 722 0
DWIDTH 10 0
BBX 9 12 0 0
BITMAP
1000
0800
1C00
6300
4100
8080
8080
8080
8080
4100
6300
1C00
ENDCHAR
STARTCHAR Uacute
ENCODING 242
SWIDTH 722 0
DWIDTH 10 0
BBX 9 12 0 0
BITMAP
0400
0800
E380
4100
4100
4100
4100
4100
4100
4100
2200
1C00
ENDCHAR
STARTCHAR Ucircumflex
ENCODING 243
SWIDTH 722 0
DWIDTH 11 0
BBX 9 12 1 0
BITMAP
0800
1400
E380
4100
4100
4100
4100
4100
4100
4100
2200
1C00
ENDCHAR
STARTCHAR Ugrave
ENCODING 244
SWIDTH 722 0
DWIDTH 11 0
BBX 9 12 1 0
BITMAP
1000
0800
E380
4100
4100
4100
4100
4100
4100
4100
2200
1C00
ENDCHAR
STARTCHAR dotlessi
ENCODING 245
SWIDTH 278 0
DWIDTH 4 0
BBX 3 7 0 0
BITMAP
40
C0
40
40
40
40
E0
ENDCHAR
STARTCHAR circumflex
ENCODING 246
SWIDTH 333 0
DWIDTH 5 0
BBX 3 2 1 8
BITMAP
40
A0
ENDCHAR
STARTCHAR tilde
ENCODING 247
SWIDTH 333 0
DWIDTH 5 0
BBX 5 2 0 8
BITMAP
68
B0
ENDCHAR
STARTCHAR macron
ENCODING 248
SWIDTH 333 0
DWIDTH 5 0
BBX 3 1 1 8
BITMAP
E0
ENDCHAR
STARTCHAR breve
ENCODING 249
SWIDTH 333 0
DWIDTH 5 0
BBX 4 2 0 8
BITMAP
90
60
ENDCHAR
STARTCHAR dotaccent
ENCODING 250
SWIDTH 333 0
DWIDTH 5 0
BBX 1 1 2 9
BITMAP
80
ENDCHAR
STARTCHAR ring
ENCODING 251
SWIDTH 333 0
DWIDTH 5 0
BBX 4 4 0 6
BITMAP
60
90
90
60
ENDCHAR
STARTCHAR cedilla
ENCODING 252
SWIDTH 333 0
DWIDTH 5 0
BBX 3 5 1 -3
BITMAP
80
C0
20
20
C0
ENDCHAR
STARTCHAR hungarumlaut
ENCODING 253
SWIDTH 333 0
DWIDTH 5 0
BBX 4 2 0 8
BITMAP
50
A0
ENDCHAR
STARTCHAR ogonek
ENCODING 254
SWIDTH 333 0
DWIDTH 5 0
BBX 3 4 1 -3
BITMAP
40
80
80
60
ENDCHAR
STARTCHAR caron
ENCODING 255
SWIDTH 333 0
DWIDTH 7 0
BBX 5 3 1 9
BITMAP
88
50
20
ENDCHAR
ENDFONT
